<svg width="115" height="35" viewBox="0 0 115 35" fill="none" xmlns="http://www.w3.org/2000/svg">
<path d="M22.08 27H16.608L7.456 13.144V27H1.984V4.536H7.456L16.608 18.456V4.536H22.08V27ZM42.8785 17.784C42.8785 18.296 42.8465 18.8293 42.7825 19.384H30.3985C30.4838 20.4933 30.8358 21.3467 31.4545 21.944C32.0945 22.52 32.8732 22.808 33.7905 22.808C35.1558 22.808 36.1052 22.232 36.6385 21.08H42.4625C42.1638 22.2533 41.6198 23.3093 40.8305 24.248C40.0625 25.1867 39.0918 25.9227 37.9185 26.456C36.7452 26.9893 35.4332 27.256 33.9825 27.256C32.2332 27.256 30.6758 26.8827 29.3105 26.136C27.9452 25.3893 26.8785 24.3227 26.1105 22.936C25.3425 21.5493 24.9585 19.928 24.9585 18.072C24.9585 16.216 25.3318 14.5947 26.0785 13.208C26.8465 11.8213 27.9132 10.7547 29.2785 10.008C30.6438 9.26133 32.2118 8.888 33.9825 8.888C35.7105 8.888 37.2465 9.25067 38.5905 9.976C39.9345 10.7013 40.9798 11.736 41.7265 13.08C42.4945 14.424 42.8785 15.992 42.8785 17.784ZM37.2785 16.344C37.2785 15.4053 36.9585 14.6587 36.3185 14.104C35.6785 13.5493 34.8785 13.272 33.9185 13.272C33.0012 13.272 32.2225 13.5387 31.5825 14.072C30.9638 14.6053 30.5798 15.3627 30.4305 16.344H37.2785ZM53.0293 27.256C51.4719 27.256 50.0853 26.9893 48.8693 26.456C47.6533 25.9227 46.6933 25.1973 45.9893 24.28C45.2853 23.3413 44.8906 22.296 44.8053 21.144H50.2133C50.2773 21.7627 50.5653 22.264 51.0773 22.648C51.5893 23.032 52.2186 23.224 52.9653 23.224C53.6479 23.224 54.1706 23.096 54.5333 22.84C54.9173 22.5627 55.1093 22.2107 55.1093 21.784C55.1093 21.272 54.8426 20.8987 54.3093 20.664C53.7759 20.408 52.9119 20.1307 51.7173 19.832C50.4373 19.5333 49.3706 19.224 48.5173 18.904C47.6639 18.5627 46.9279 18.04 46.3093 17.336C45.6906 16.6107 45.3813 15.64 45.3813 14.424C45.3813 13.4 45.6586 12.472 46.2133 11.64C46.7893 10.7867 47.6213 10.1147 48.7093 9.624C49.8186 9.13333 51.1306 8.888 52.6453 8.888C54.8853 8.888 56.6453 9.44267 57.9253 10.552C59.2266 11.6613 59.9733 13.1333 60.1653 14.968H55.1093C55.0239 14.3493 54.7466 13.8587 54.2773 13.496C53.8293 13.1333 53.2319 12.952 52.4853 12.952C51.8453 12.952 51.3546 13.08 51.0133 13.336C50.6719 13.5707 50.5013 13.9013 50.5013 14.328C50.5013 14.84 50.7679 15.224 51.3013 15.48C51.8559 15.736 52.7093 15.992 53.8613 16.248C55.1839 16.5893 56.2613 16.9307 57.0933 17.272C57.9253 17.592 58.6506 18.1253 59.2693 18.872C59.9093 19.5973 60.2399 20.5787 60.2613 21.816C60.2613 22.8613 59.9626 23.8 59.3653 24.632C58.7893 25.4427 57.9466 26.0827 56.8373 26.552C55.7493 27.0213 54.4799 27.256 53.0293 27.256ZM73.561 22.36V27H70.777C68.793 27 67.2463 26.52 66.137 25.56C65.0277 24.5787 64.473 22.9893 64.473 20.792V13.688H62.297V9.144H64.473V4.792H69.945V9.144H73.529V13.688H69.945V20.856C69.945 21.3893 70.073 21.7733 70.329 22.008C70.585 22.2427 71.0117 22.36 71.609 22.36H73.561ZM84.737 27.256C82.9877 27.256 81.409 26.8827 80.001 26.136C78.6143 25.3893 77.5157 24.3227 76.705 22.936C75.9157 21.5493 75.521 19.928 75.521 18.072C75.521 16.2373 75.9263 14.6267 76.737 13.24C77.5477 11.832 78.657 10.7547 80.065 10.008C81.473 9.26133 83.0517 8.888 84.801 8.888C86.5503 8.888 88.129 9.26133 89.537 10.008C90.945 10.7547 92.0543 11.832 92.865 13.24C93.6757 14.6267 94.081 16.2373 94.081 18.072C94.081 19.9067 93.665 21.528 92.833 22.936C92.0223 24.3227 90.9023 25.3893 89.473 26.136C88.065 26.8827 86.4863 27.256 84.737 27.256ZM84.737 22.52C85.7823 22.52 86.6677 22.136 87.393 21.368C88.1397 20.6 88.513 19.5013 88.513 18.072C88.513 16.6427 88.1503 15.544 87.425 14.776C86.721 14.008 85.8463 13.624 84.801 13.624C83.7343 13.624 82.849 14.008 82.145 14.776C81.441 15.5227 81.089 16.6213 81.089 18.072C81.089 19.5013 81.4303 20.6 82.113 21.368C82.817 22.136 83.6917 22.52 84.737 22.52ZM102.456 12.12C103.096 11.1387 103.896 10.3707 104.856 9.816C105.816 9.24 106.883 8.952 108.056 8.952V14.744H106.552C105.187 14.744 104.163 15.0427 103.48 15.64C102.797 16.216 102.456 17.24 102.456 18.712V27H96.984V9.144H102.456V12.12Z" fill="black"/>
<circle cx="111" cy="31" r="4" fill="#FDA300"/>
</svg>
