<svg width="31" height="30" viewBox="0 0 31 30" fill="none" xmlns="http://www.w3.org/2000/svg">
<path d="M15.5 0.916668C13.5849 0.916668 11.6885 1.29388 9.9192 2.02676C8.14987 2.75964 6.54222 3.83384 5.18803 5.18803C2.45313 7.92293 0.916672 11.6323 0.916672 15.5C0.916672 21.9458 5.10209 27.4146 10.8917 29.3542C11.6208 29.4708 11.8542 29.0188 11.8542 28.625V26.1604C7.81459 27.0354 6.95417 24.2063 6.95417 24.2063C6.28334 22.5146 5.33542 22.0625 5.33542 22.0625C4.00834 21.1583 5.43751 21.1875 5.43751 21.1875C6.89584 21.2896 7.66876 22.6896 7.66876 22.6896C8.93751 24.9063 11.0813 24.25 11.9125 23.9C12.0438 22.9521 12.4229 22.3104 12.8313 21.9458C9.59376 21.5813 6.19584 20.3271 6.19584 14.7708C6.19584 13.1521 6.75001 11.8542 7.69792 10.8188C7.55209 10.4542 7.04167 8.9375 7.84376 6.96875C7.84376 6.96875 9.06876 6.575 11.8542 8.45625C13.0063 8.13542 14.2604 7.975 15.5 7.975C16.7396 7.975 17.9938 8.13542 19.1458 8.45625C21.9313 6.575 23.1563 6.96875 23.1563 6.96875C23.9583 8.9375 23.4479 10.4542 23.3021 10.8188C24.25 11.8542 24.8042 13.1521 24.8042 14.7708C24.8042 20.3417 21.3917 21.5667 18.1396 21.9313C18.6646 22.3833 19.1458 23.2729 19.1458 24.6292V28.625C19.1458 29.0188 19.3792 29.4854 20.1229 29.3542C25.9125 27.4 30.0833 21.9458 30.0833 15.5C30.0833 13.5849 29.7061 11.6885 28.9733 9.9192C28.2404 8.14987 27.1662 6.54222 25.812 5.18803C24.4578 3.83384 22.8501 2.75964 21.0808 2.02676C19.3115 1.29388 17.4151 0.916668 15.5 0.916668Z" fill="black"/>
</svg>
