<svg width="31" height="31" viewBox="0 0 31 31" fill="none" xmlns="http://www.w3.org/2000/svg">
<path d="M15.5 0.916664C7.45001 0.916664 0.916672 7.45 0.916672 15.5C0.916672 23.55 7.45001 30.0833 15.5 30.0833C23.55 30.0833 30.0833 23.55 30.0833 15.5C30.0833 7.45 23.55 0.916664 15.5 0.916664ZM22.2667 10.8333C22.0479 13.1375 21.1 18.7375 20.6188 21.3187C20.4146 22.4125 20.0063 22.7771 19.6271 22.8208C18.7813 22.8937 18.1396 22.2667 17.3229 21.7271C16.0396 20.8812 15.3104 20.3562 14.0708 19.5396C12.6271 18.5917 13.5604 18.0667 14.3917 17.2208C14.6104 17.0021 18.3438 13.6042 18.4167 13.2979C18.4268 13.2515 18.4255 13.2034 18.4127 13.1576C18.4 13.1119 18.3764 13.0699 18.3438 13.0354C18.2563 12.9625 18.1396 12.9917 18.0375 13.0062C17.9063 13.0354 15.8646 14.3917 11.8833 17.075C11.3 17.4687 10.775 17.6729 10.3083 17.6583C9.78334 17.6437 8.79167 17.3667 8.04792 17.1187C7.12917 16.8271 6.41459 16.6667 6.47292 16.1562C6.50209 15.8937 6.86667 15.6312 7.55209 15.3542C11.8104 13.5021 14.6396 12.2771 16.0542 11.6937C20.1083 10.0021 20.9396 9.71041 21.4938 9.71041C21.6104 9.71041 21.8875 9.73958 22.0625 9.88541C22.2083 10.0021 22.2521 10.1625 22.2667 10.2792C22.2521 10.3667 22.2813 10.6292 22.2667 10.8333Z" fill="black"/>
</svg>
