<svg width="35" height="35" viewBox="0 0 35 35" fill="none" xmlns="http://www.w3.org/2000/svg">
<path d="M13.8381 0.00583221L14.9013 0.00145721H20.0987L21.1633 0.00583221L22.4963 0.0204155L23.1277 0.0306239L23.7373 0.0466656L24.325 0.0670822L24.8908 0.0904156L25.4362 0.121041L25.9613 0.157499L26.4644 0.201249L26.95 0.249374C29.4875 0.535207 31.2273 1.14771 32.5398 2.46021C33.8523 3.77271 34.4648 5.51104 34.7506 8.05L34.8002 8.53562L34.8425 9.04021L34.879 9.56521L34.9081 10.1092L34.9446 10.9667L34.9621 11.5646L34.981 12.5037L34.9942 13.8381L35 15.2673L34.9985 20.0987L34.9942 21.1633L34.9796 22.4962L34.9694 23.1277L34.9533 23.7373L34.9329 24.325L34.9096 24.8908L34.879 25.4362L34.8425 25.9613L34.7988 26.4644L34.7506 26.95C34.4648 29.4875 33.8523 31.2273 32.5398 32.5398C31.2273 33.8523 29.489 34.4648 26.95 34.7506L26.4644 34.8002L25.9598 34.8425L25.4348 34.879L24.8908 34.9081L24.0333 34.9446L23.4354 34.9621L22.4963 34.981L21.1619 34.9942L19.7327 35L14.9013 34.9985L13.8367 34.9942L12.5038 34.9796L11.8723 34.9694L11.2627 34.9533L10.675 34.9329L10.1092 34.9096L9.56375 34.879L9.03875 34.8425L8.53563 34.7987L8.05 34.7506C5.5125 34.4648 3.77271 33.8523 2.46021 32.5398C1.14771 31.2273 0.535208 29.489 0.249375 26.95L0.199792 26.4644L0.1575 25.9598L0.121042 25.4348L0.091875 24.8908L0.0554167 24.0333L0.0379167 23.4354L0.0189583 22.4962L0.00583333 21.1619L0 19.7327L0.00145833 14.9012L0.00583333 13.8367L0.0204167 12.5037L0.030625 11.8723L0.0466667 11.2627L0.0670833 10.675L0.0904167 10.1092L0.121042 9.56375L0.1575 9.03875L0.20125 8.53562L0.249375 8.05C0.535208 5.5125 1.14771 3.77271 2.46021 2.46021C3.77271 1.14771 5.51104 0.535207 8.05 0.249374L8.53563 0.199791L9.04021 0.157499L9.56521 0.121041L10.1092 0.0918739L10.9667 0.0554155L11.5646 0.0379155L12.5038 0.0189572L13.8381 0.00583221ZM9.90208 10.6458H5.90625C6.09583 19.7458 10.6458 25.2146 18.6229 25.2146H19.075V20.0083C22.0063 20.3 24.2229 22.4438 25.1125 25.2146H29.2542C28.1167 21.0729 25.1271 18.7833 23.2604 17.9083C25.1271 16.8292 27.7521 14.2042 28.3792 10.6458H24.6167C23.8 13.5333 21.3792 16.1583 19.075 16.4062V10.6458H15.3125V20.7375C12.9792 20.1542 10.0333 17.325 9.90208 10.6458Z" fill="black"/>
</svg>
